<mxfile host="app.diagrams.net" modified="2024-06-05T13:41:14.503Z" agent="Mozilla/5.0 (Windows NT 10.0; Win64; x64) AppleWebKit/537.36 (KHTML, like Gecko) Chrome/125.0.0.0 Safari/537.36 Edg/125.0.0.0" etag="DQAT9xhTT_wMcMDWhQ0c" version="24.4.13" type="device">
  <diagram name="Page-1" id="Fmsnwh_GB8n5a-hDfCT3">
    <mxGraphModel dx="1386" dy="793" grid="1" gridSize="10" guides="1" tooltips="1" connect="1" arrows="1" fold="1" page="1" pageScale="1" pageWidth="850" pageHeight="1100" math="0" shadow="0">
      <root>
        <mxCell id="0" />
        <mxCell id="1" parent="0" />
        <mxCell id="IGEThCHEhvGlLkRtF7x6-1" value="user" style="shape=umlActor;verticalLabelPosition=bottom;verticalAlign=top;html=1;outlineConnect=0;rounded=1;" parent="1" vertex="1">
          <mxGeometry x="100" y="340" width="30" height="60" as="geometry" />
        </mxCell>
        <mxCell id="MLU2V3QKFiQ-VihSslrR-26" value="mengelola informasi" style="ellipse;whiteSpace=wrap;html=1;rounded=1;" parent="1" vertex="1">
          <mxGeometry x="230" y="260" width="80" height="50" as="geometry" />
        </mxCell>
        <mxCell id="MLU2V3QKFiQ-VihSslrR-27" value="" style="endArrow=none;html=1;rounded=0;entryX=0;entryY=0.5;entryDx=0;entryDy=0;" parent="1" target="MLU2V3QKFiQ-VihSslrR-26" edge="1">
          <mxGeometry width="50" height="50" relative="1" as="geometry">
            <mxPoint x="110" y="320" as="sourcePoint" />
            <mxPoint x="250" y="-65" as="targetPoint" />
            <Array as="points" />
          </mxGeometry>
        </mxCell>
      </root>
    </mxGraphModel>
  </diagram>
</mxfile>
